<?xml version="1.0" encoding="iso-8859-1"?>
<!-- Generator: Adobe Illustrator 19.0.0, SVG Export Plug-In . SVG Version: 6.00 Build 0)  -->
<svg version="1.1" id="Layer_1" xmlns="http://www.w3.org/2000/svg" xmlns:xlink="http://www.w3.org/1999/xlink" x="0px" y="0px"
	 viewBox="0 0 512 512" style="enable-background:new 0 0 512 512;" xml:space="preserve">
<g transform="translate(1 1)">
	<g>
		<g>
			<path d="M169.667,195.267h-102.4c-5.12,0-8.533,3.413-8.533,8.533v34.133c0,5.12,3.413,8.533,8.533,8.533h102.4
				c5.12,0,8.533-3.413,8.533-8.533V203.8C178.2,198.68,174.787,195.267,169.667,195.267z M161.133,229.4H75.8v-17.067h85.333V229.4
				z"/>
			<path d="M442.733,195.267h-25.6v-25.6c0-5.12-3.413-8.533-8.533-8.533h-34.133c-5.12,0-8.533,3.413-8.533,8.533v25.6h-25.6
				c-5.12,0-8.533,3.413-8.533,8.533v34.133c0,5.12,3.413,8.533,8.533,8.533h25.6v25.6c0,5.12,3.413,8.533,8.533,8.533H408.6
				c5.12,0,8.533-3.413,8.533-8.533v-25.6h25.6c5.12,0,8.533-3.413,8.533-8.533V203.8
				C451.267,198.68,447.853,195.267,442.733,195.267z M434.2,229.4h-25.6c-5.12,0-8.533,3.413-8.533,8.533v25.6H383v-25.6
				c0-5.12-3.413-8.533-8.533-8.533h-25.6v-17.067h25.6c5.12,0,8.533-3.413,8.533-8.533v-25.6h17.067v25.6
				c0,5.12,3.413,8.533,8.533,8.533h25.6V229.4z"/>
			<path d="M502.467,425.667h-8.533V127c0-5.12-3.413-8.533-8.533-8.533h-20.48l-14.507-29.013c-1.707-3.413-4.267-5.12-7.68-5.12
				V41.667c0-5.12-3.413-8.533-8.533-8.533H383c-5.12,0-8.533,3.413-8.533,8.533v42.667c-3.413,0-5.973,1.707-7.68,4.267
				l-14.933,29.867h-11.52V50.2c0-9.387-7.68-17.067-17.067-17.067H186.733c-9.387,0-17.067,7.68-17.067,17.067v68.267H157.72
				l-14.507-29.013c-1.707-3.413-4.267-5.12-7.68-5.12V41.667c0-5.12-3.413-8.533-8.533-8.533H75.8c-5.12,0-8.533,3.413-8.533,8.533
				v42.667c-3.413,0-5.973,1.707-7.68,4.267l-14.933,29.867H24.6c-5.12,0-8.533,3.413-8.533,8.533v298.667H7.533
				C2.413,425.667-1,429.08-1,434.2v34.133c0,5.12,3.413,8.533,8.533,8.533h494.933c5.12,0,8.533-3.413,8.533-8.533V434.2
				C511,429.08,507.587,425.667,502.467,425.667z M391.533,50.2h34.133v34.133h-34.133V50.2z M379.587,101.4H383h51.2h3.413
				l8.533,17.067h-75.093L379.587,101.4z M186.733,50.2h136.533v68.267H306.2V84.333c0-9.387-7.68-17.067-17.067-17.067h-68.267
				c-9.387,0-17.067,7.68-17.067,17.067v34.133h-17.067V50.2z M220.867,118.467V84.333h68.267v34.133H220.867z M84.333,50.2h34.133
				v34.133H84.333V50.2z M72.387,101.4H75.8H127h3.413l8.533,17.067H63.853L72.387,101.4z M33.133,135.533H50.2h102.4h25.6h34.133
				h85.333H331.8h25.6h102.4h17.067v290.133H33.133V135.533z M493.933,459.8H16.067v-17.067H24.6h460.8h8.533V459.8z"/>
		</g>
	</g>
</g>
<g>
</g>
<g>
</g>
<g>
</g>
<g>
</g>
<g>
</g>
<g>
</g>
<g>
</g>
<g>
</g>
<g>
</g>
<g>
</g>
<g>
</g>
<g>
</g>
<g>
</g>
<g>
</g>
<g>
</g>
</svg>
