<?xml version="1.0" encoding="iso-8859-1"?>
<!-- Generator: Adobe Illustrator 19.0.0, SVG Export Plug-In . SVG Version: 6.00 Build 0)  -->
<svg version="1.1" id="Layer_1" xmlns="http://www.w3.org/2000/svg" xmlns:xlink="http://www.w3.org/1999/xlink" x="0px" y="0px"
	 viewBox="0 0 512 512" style="enable-background:new 0 0 512 512;" xml:space="preserve">
<g transform="translate(1 1)">
	<g>
		<g>
			<path d="M272.067,331.8h-25.6v-17.067c0-5.12-3.413-8.533-8.533-8.533h-17.067v-42.667c0-5.12-3.413-8.533-8.533-8.533H203.8
				V75.8c0-24.747-11.093-42.667-25.6-42.667h-8.533V16.067C169.667,6.68,161.987-1,152.6-1h-17.067
				c-9.387,0-17.067,7.68-17.067,17.067v17.067h-8.533c-14.507,0-25.6,17.92-25.6,42.667V255H75.8c-5.12,0-8.533,3.413-8.533,8.533
				V306.2H50.2c-5.12,0-8.533,3.413-8.533,8.533V331.8h-25.6c-5.12,0-8.533,3.413-8.533,8.533v34.133
				c0,5.12,3.413,8.533,8.533,8.533h51.2v76.8c0,5.12,3.413,8.533,8.533,8.533h25.6v34.133c0,5.12,3.413,8.533,8.533,8.533
				s8.533-3.413,8.533-8.533v-34.133h51.2v34.133c0,5.12,3.413,8.533,8.533,8.533s8.533-3.413,8.533-8.533v-34.133h25.6
				c5.12,0,8.533-3.413,8.533-8.533V383h51.2c5.12,0,8.533-3.413,8.533-8.533v-34.133C280.6,335.213,277.187,331.8,272.067,331.8z
				 M109.933,50.2H127c5.12,0,8.533-3.413,8.533-8.533v-25.6H152.6v25.6c0,5.12,3.413,8.533,8.533,8.533H178.2
				c1.38,0,6.106,6.143,7.864,17.067h-83.996C103.828,56.344,108.553,50.2,109.933,50.2z M101.4,84.333h85.333V255H101.4V84.333z
				 M84.333,272.067h8.533h102.4h8.533V306.2H84.333V272.067z M203.8,451.267H84.333V383H203.8V451.267z M263.533,365.933h-51.2
				H75.8H24.6v-17.067h25.6c5.12,0,8.533-3.413,8.533-8.533v-17.067H75.8h136.533H229.4v17.067c0,5.12,3.413,8.533,8.533,8.533h25.6
				V365.933z"/>
			<path d="M468.333,118.467c-22.187-19.627-51.2-29.013-80.213-25.6c-46.08,5.12-84.48,42.667-89.6,89.6
				c-3.413,28.16,5.12,55.467,22.187,76.8c12.8,16.213,19.627,35.84,19.627,55.467V434.2c0,2.434,0.779,4.476,2.139,5.955
				c8.878,21.299,32.46,36.712,57.595,36.712c25.135,0,48.717-15.412,57.595-36.712c1.36-1.479,2.139-3.521,2.139-5.955V314.733
				c0-0.145-0.013-0.284-0.018-0.427c0.005-0.143,0.018-0.281,0.018-0.427c0-20.48,6.827-39.253,19.627-54.613
				c14.507-17.92,23.04-40.96,23.04-64.853C502.467,165.4,489.667,138.093,468.333,118.467z M442.733,425.667H357.4v-102.4h85.333
				V425.667z M400.067,459.8c-14.507,0-28.16-6.827-36.693-17.067h73.387C428.227,452.973,414.573,459.8,400.067,459.8z
				 M465.773,249.027c-13.653,16.213-21.333,36.693-23.04,57.173H408.6v-68.267h17.067c5.12,0,8.533-3.413,8.533-8.533
				s-3.413-8.533-8.533-8.533H408.6V203.8h34.133c5.12,0,8.533-3.413,8.533-8.533s-3.413-8.533-8.533-8.533H408.6v-17.067h42.667
				c5.12,0,8.533-3.413,8.533-8.533s-3.413-8.533-8.533-8.533h-102.4c-5.12,0-8.533,3.413-8.533,8.533s3.413,8.533,8.533,8.533
				h42.667v17.067H357.4c-5.12,0-8.533,3.413-8.533,8.533s3.413,8.533,8.533,8.533h34.133v17.067h-17.067
				c-5.12,0-8.533,3.413-8.533,8.533s3.413,8.533,8.533,8.533h17.067V306.2H357.4c-1.707-20.48-10.24-40.96-23.04-57.173
				c-14.507-17.92-21.333-40.96-18.773-64c4.267-39.253,35.84-70.827,75.093-75.093c24.747-2.56,48.64,5.12,66.56,21.333
				c17.92,16.213,28.16,40.107,28.16,64C485.4,214.893,478.573,233.667,465.773,249.027z"/>
		</g>
	</g>
</g>
<g>
</g>
<g>
</g>
<g>
</g>
<g>
</g>
<g>
</g>
<g>
</g>
<g>
</g>
<g>
</g>
<g>
</g>
<g>
</g>
<g>
</g>
<g>
</g>
<g>
</g>
<g>
</g>
<g>
</g>
</svg>
