<?xml version="1.0" encoding="iso-8859-1"?>
<!-- Generator: Adobe Illustrator 19.0.0, SVG Export Plug-In . SVG Version: 6.00 Build 0)  -->
<svg version="1.1" id="Layer_1" xmlns="http://www.w3.org/2000/svg" xmlns:xlink="http://www.w3.org/1999/xlink" x="0px" y="0px"
	 viewBox="0 0 512 512" style="enable-background:new 0 0 512 512;" xml:space="preserve">
<g transform="translate(1 1)">
	<g>
		<g>
			<path d="M374.467-1C320.92-1,274.324,30.245,251.988,75.399l-214.93,214.93C13.934,307.384-1,334.828-1,365.933
				c0,51.753,41.334,93.377,92.969,93.855c0.015,0.003,0.03,0.008,0.045,0.011l332.237,48.62c5.568,1.577,11.415,2.462,17.45,2.554
				l0.18,0.026h0.853C480.28,511,511,480.28,511,442.733v-307.2C511,60.44,449.56-1,374.467-1z M374.467,16.067
				c65.707,0,119.467,53.76,119.467,119.467S440.173,255,374.467,255S255,201.24,255,135.533c0-18.379,4.209-35.822,11.706-51.417
				c0.183-0.322,0.346-0.649,0.483-0.984C286.691,43.506,327.528,16.067,374.467,16.067z M16.067,365.933
				c0-24.832,11.575-46.758,29.652-60.762c0.532-0.315,1.037-0.711,1.536-1.171c12.724-9.352,28.476-14.867,45.612-14.867
				c42.667,0,76.8,34.133,76.8,76.8s-34.133,76.8-76.8,76.8C50.2,442.733,16.067,408.6,16.067,365.933z M442.733,493.933
				c-28.16,0-51.2-23.04-51.2-51.2c0-28.16,23.04-51.2,51.2-51.2c28.16,0,51.2,23.04,51.2,51.2
				C493.933,470.893,470.893,493.933,442.733,493.933z M493.933,397.728c-12.535-14.233-30.859-23.261-51.2-23.261
				c-37.547,0-68.267,30.72-68.267,68.267c0,16.829,6.185,32.275,16.377,44.21l-255.203-37.347
				c30.397-15.49,51.093-47.042,51.093-83.663c0-52.053-41.813-93.867-93.867-93.867c-5.041,0-9.985,0.397-14.806,1.152
				l162.073-162.073c-1.443,7.919-2.2,16.068-2.2,24.387c0,75.093,61.44,136.533,136.533,136.533
				c51.245,0,96.125-28.617,119.467-70.656V397.728z"/>
			<path d="M442.733,434.2c-5.12,0-8.533,3.413-8.533,8.533s3.413,8.533,8.533,8.533s8.533-3.413,8.533-8.533
				S447.853,434.2,442.733,434.2z"/>
			<path d="M374.467,84.333c5.12,0,8.533-3.413,8.533-8.533s-3.413-8.533-8.533-8.533s-8.533,3.413-8.533,8.533
				S369.347,84.333,374.467,84.333z"/>
			<path d="M374.467,186.733c-5.12,0-8.533,3.413-8.533,8.533s3.413,8.533,8.533,8.533s8.533-3.413,8.533-8.533
				S379.587,186.733,374.467,186.733z"/>
			<path d="M135.533,365.933c0-23.893-18.773-42.667-42.667-42.667c-23.893,0-42.667,18.773-42.667,42.667
				S68.973,408.6,92.867,408.6C116.76,408.6,135.533,389.827,135.533,365.933z M67.267,365.933c0-14.507,11.093-25.6,25.6-25.6
				c14.507,0,25.6,11.093,25.6,25.6s-11.093,25.6-25.6,25.6C78.36,391.533,67.267,380.44,67.267,365.933z"/>
			<path d="M434.2,144.067c5.12,0,8.533-3.413,8.533-8.533S439.32,127,434.2,127s-8.533,3.413-8.533,8.533
				S429.08,144.067,434.2,144.067z"/>
			<path d="M314.733,144.067c5.12,0,8.533-3.413,8.533-8.533S319.853,127,314.733,127s-8.533,3.413-8.533,8.533
				S309.613,144.067,314.733,144.067z"/>
			<path d="M331.8,101.4c5.12,0,8.533-3.413,8.533-8.533c0-5.12-3.413-8.533-8.533-8.533c-5.12,0-8.533,3.413-8.533,8.533
				C323.267,97.987,326.68,101.4,331.8,101.4z"/>
			<path d="M417.133,169.667c-5.12,0-8.533,3.413-8.533,8.533s3.413,8.533,8.533,8.533s8.533-3.413,8.533-8.533
				S422.253,169.667,417.133,169.667z"/>
			<path d="M417.133,101.4c5.12,0,8.533-3.413,8.533-8.533c0-5.12-3.413-8.533-8.533-8.533s-8.533,3.413-8.533,8.533
				C408.6,97.987,412.013,101.4,417.133,101.4z"/>
			<path d="M331.8,169.667c-5.12,0-8.533,3.413-8.533,8.533s3.413,8.533,8.533,8.533c5.12,0,8.533-3.413,8.533-8.533
				S336.92,169.667,331.8,169.667z"/>
			<path d="M374.467,237.933c56.32,0,102.4-46.08,102.4-102.4s-46.08-102.4-102.4-102.4s-102.4,46.08-102.4,102.4
				S318.147,237.933,374.467,237.933z M374.467,50.2c46.933,0,85.333,38.4,85.333,85.333s-38.4,85.333-85.333,85.333
				s-85.333-38.4-85.333-85.333S327.533,50.2,374.467,50.2z"/>
			<path d="M374.467,169.667c18.773,0,34.133-15.36,34.133-34.133c0-18.773-15.36-34.133-34.133-34.133
				c-18.773,0-34.133,15.36-34.133,34.133C340.333,154.307,355.693,169.667,374.467,169.667z M374.467,118.467
				c9.387,0,17.067,7.68,17.067,17.067s-7.68,17.067-17.067,17.067s-17.067-7.68-17.067-17.067S365.08,118.467,374.467,118.467z"/>
		</g>
	</g>
</g>
<g>
</g>
<g>
</g>
<g>
</g>
<g>
</g>
<g>
</g>
<g>
</g>
<g>
</g>
<g>
</g>
<g>
</g>
<g>
</g>
<g>
</g>
<g>
</g>
<g>
</g>
<g>
</g>
<g>
</g>
</svg>
