<?xml version="1.0" encoding="iso-8859-1"?>
<!-- Generator: Adobe Illustrator 19.0.0, SVG Export Plug-In . SVG Version: 6.00 Build 0)  -->
<svg version="1.1" id="Layer_1" xmlns="http://www.w3.org/2000/svg" xmlns:xlink="http://www.w3.org/1999/xlink" x="0px" y="0px"
	 viewBox="0 0 512 512" style="enable-background:new 0 0 512 512;" xml:space="preserve">
<g transform="translate(1 1)">
	<g>
		<g>
			<path d="M242.2,41.667H71.533C66.413,41.667,63,45.08,63,50.2v119.467c0,5.12,3.413,8.533,8.533,8.533H242.2
				c5.12,0,8.533-3.413,8.533-8.533V50.2C250.733,45.08,247.32,41.667,242.2,41.667z M233.667,161.133h-153.6v-102.4h153.6V161.133z
				"/>
			<path d="M242.2,229.4H71.533c-5.12,0-8.533,3.413-8.533,8.533V408.6c0,5.12,3.413,8.533,8.533,8.533H242.2
				c5.12,0,8.533-3.413,8.533-8.533V237.933C250.733,232.813,247.32,229.4,242.2,229.4z M233.667,400.067h-153.6v-153.6h153.6
				V400.067z"/>
			<path d="M389.827,84.333c-5.12-0.853-10.24,0.853-13.653,4.267c-3.413,3.413-5.973,8.533-5.973,13.653
				c0,8.533,5.12,14.507,12.8,17.067c23.893,6.827,55.467,53.76,55.467,75.947V398.36c0,18.773-13.653,34.133-30.72,35.84
				c-10.24,0.853-19.627-1.707-26.453-8.533s-11.093-16.213-11.093-25.6V237.933c0-44.054-33.834-80.586-76.8-84.903V7.533
				c0-5.12-3.413-8.533-8.533-8.533h-256c-5.12,0-8.533,3.413-8.533,8.533V459.8H11.8c-5.12,0-8.533,3.413-8.533,8.533v34.133
				c0,5.12,3.413,8.533,8.533,8.533h290.133c5.12,0,8.533-3.413,8.533-8.533v-34.133c0-5.12-3.413-8.533-8.533-8.533H293.4V204.888
				c14.679,3.814,25.6,17.216,25.6,33.046v159.573c0,46.08,34.987,84.48,79.36,87.893c1.707,0,4.267,0,5.973,0
				c22.187,0,42.667-7.68,58.027-23.04c17.067-16.213,27.307-38.4,27.307-62.293V203.8h8.533c5.12,0,8.533-3.413,8.533-8.533
				C506.733,147.48,441.027,92.867,389.827,84.333z M293.4,493.933H20.333v-17.067h8.533h256h8.533V493.933z M37.4,459.8V16.067
				h238.933v145.067v34.133V459.8H37.4z M481.133,186.733c-5.12,0-8.533,3.413-8.533,8.533V400.92
				c0,18.773-7.68,36.693-21.333,49.493c-13.653,12.8-31.573,19.627-51.2,17.92c-35.84-2.56-64-33.28-64-70.827V237.933
				c0-25.6-18.773-46.08-42.667-50.347V170.52c33.28,4.267,59.733,32.427,59.733,67.413V400.92c0,13.653,5.973,28.16,17.067,37.547
				c10.24,9.387,24.747,14.507,39.253,12.8c25.6-2.56,46.08-25.6,46.08-52.907V195.267c0-29.013-36.693-83.627-68.267-93.013
				c40.107,5.973,93.867,47.787,101.547,84.48H481.133z"/>
			<path d="M114.2,289.133h85.333c5.12,0,8.533-3.413,8.533-8.533s-3.413-8.533-8.533-8.533H114.2c-5.12,0-8.533,3.413-8.533,8.533
				S109.08,289.133,114.2,289.133z"/>
			<path d="M114.2,331.8h85.333c5.12,0,8.533-3.413,8.533-8.533s-3.413-8.533-8.533-8.533H114.2c-5.12,0-8.533,3.413-8.533,8.533
				S109.08,331.8,114.2,331.8z"/>
			<path d="M114.2,374.467h85.333c5.12,0,8.533-3.413,8.533-8.533s-3.413-8.533-8.533-8.533H114.2c-5.12,0-8.533,3.413-8.533,8.533
				S109.08,374.467,114.2,374.467z"/>
		</g>
	</g>
</g>
<g>
</g>
<g>
</g>
<g>
</g>
<g>
</g>
<g>
</g>
<g>
</g>
<g>
</g>
<g>
</g>
<g>
</g>
<g>
</g>
<g>
</g>
<g>
</g>
<g>
</g>
<g>
</g>
<g>
</g>
</svg>
