<?xml version="1.0" encoding="iso-8859-1"?>
<!-- Generator: Adobe Illustrator 19.0.0, SVG Export Plug-In . SVG Version: 6.00 Build 0)  -->
<svg version="1.1" id="Layer_1" xmlns="http://www.w3.org/2000/svg" xmlns:xlink="http://www.w3.org/1999/xlink" x="0px" y="0px"
	 viewBox="0 0 512 512" style="enable-background:new 0 0 512 512;" xml:space="preserve">
<g transform="translate(1 1)">
	<g>
		<g>
			<path d="M67.267,212.333h375.467c2.56,0,5.12-0.853,6.827-3.413c1.707-2.56,2.56-5.12,1.707-7.68
				C426.52,112.493,346.307,50.2,255,50.2S83.48,112.493,58.733,201.24c0,2.56,0,5.973,1.707,7.68
				C62.147,211.48,64.707,212.333,67.267,212.333z M255,67.267c79.36,0,151.04,52.053,175.787,128H78.36
				C103.96,119.32,175.64,67.267,255,67.267z"/>
			<path d="M451.267,248.173c-3.413-0.853-7.68-0.853-11.093-0.853c-36.693,0-59.733,18.773-59.733,49.493
				c0,27.307,18.773,51.2,46.08,58.027c0,0,0.853,0,1.707,0c3.413,0,5.973-1.707,5.973-3.413
				c15.36-29.867,23.893-51.2,23.893-85.333c0-2.56,0-4.267,0-6.827v-3.413C458.093,252.44,455.533,249.027,451.267,248.173z
				 M443.587,264.387c0,28.16-6.827,46.933-18.773,70.827C408.6,329.24,398.36,313.88,398.36,295.96
				c0-29.013,29.867-32.427,42.667-32.427c0,0,0.853,0,2.56-0.853C443.587,263.533,443.587,263.533,443.587,264.387z"/>
			<path d="M255.853,359.96c-53.76,0-101.547,18.773-122.027,48.64c-2.56,4.267-1.707,9.387,1.707,11.947
				C170.52,446.147,211.48,459.8,255,459.8c42.667,0,84.48-13.653,120.32-39.253c3.413-2.56,4.267-8.533,1.707-11.947
				C356.547,378.733,308.76,359.96,255.853,359.96z M255,442.733c-36.693,0-71.68-10.24-102.4-30.72
				c20.48-21.333,59.733-34.987,102.4-34.987c42.667,0,82.773,13.653,102.4,34.987C326.68,432.493,291.693,442.733,255,442.733z"/>
			<path d="M255-1C114.2-1-1,114.2-1,255s115.2,256,256,256s256-115.2,256-256S395.8-1,255-1z M255,493.933
				c-131.413,0-238.933-107.52-238.933-238.933S123.587,16.067,255,16.067S493.933,123.587,493.933,255S386.413,493.933,255,493.933
				z"/>
			<path d="M68.12,236.227c-3.413,0-7.68,0-11.093,0.853s-6.827,3.413-6.827,7.68v3.413c0,2.56,0,4.267,0,6.827
				c0,33.28,8.533,65.707,23.893,95.573c1.707,2.56,4.267,4.267,7.68,4.267c0.853,0,1.707,0,0-0.853
				c27.307-6.827,46.08-30.72,46.08-58.027C127.853,263.533,101.4,236.227,68.12,236.227z M86.04,336.067
				c-12.8-25.6-18.773-52.907-18.773-81.067c0-0.853,0-0.853,0-1.707c24.747-0.853,45.227,18.773,45.227,43.52
				C112.493,313.88,102.253,329.24,86.04,336.067z"/>
			<path d="M169.667,280.6c0,24.747,36.693,42.667,85.333,42.667s85.333-17.92,85.333-42.667c0-24.747-36.693-42.667-85.333-42.667
				S169.667,255.853,169.667,280.6z M323.267,280.6c0,10.24-26.453,25.6-68.267,25.6c-41.813,0-68.267-15.36-68.267-25.6
				c0-10.24,26.453-25.6,68.267-25.6C296.813,255,323.267,270.36,323.267,280.6z"/>
		</g>
	</g>
</g>
<g>
</g>
<g>
</g>
<g>
</g>
<g>
</g>
<g>
</g>
<g>
</g>
<g>
</g>
<g>
</g>
<g>
</g>
<g>
</g>
<g>
</g>
<g>
</g>
<g>
</g>
<g>
</g>
<g>
</g>
</svg>
