<?xml version="1.0" encoding="iso-8859-1"?>
<!-- Generator: Adobe Illustrator 19.0.0, SVG Export Plug-In . SVG Version: 6.00 Build 0)  -->
<svg version="1.1" id="Layer_1" xmlns="http://www.w3.org/2000/svg" xmlns:xlink="http://www.w3.org/1999/xlink" x="0px" y="0px"
	 viewBox="0 0 512 512" style="enable-background:new 0 0 512 512;" xml:space="preserve">
<g transform="translate(1 1)">
	<g>
		<g>
			<path d="M84.333,383.105c10.24,0,19.627-3.413,25.6-8.533c5.973,5.12,15.36,8.533,25.6,8.533c10.24,0,19.627-3.413,25.6-8.533
				c5.973,5.12,15.36,8.533,25.6,8.533c5.12,0,8.533-3.413,8.533-8.533s-3.413-8.533-8.533-8.533c-10.24,0-17.067-5.12-17.067-8.533
				c0-5.12-3.413-8.533-8.533-8.533s-8.533,3.413-8.533,8.533c0,3.413-6.827,8.533-17.067,8.533c-10.24,0-17.067-5.12-17.067-8.533
				c0-5.12-3.413-8.533-8.533-8.533s-8.533,3.413-8.533,8.533c0,3.413-6.827,8.533-17.067,8.533c-10.24,0-17.067-5.12-17.067-8.533
				c0-5.12-3.413-8.533-8.533-8.533s-8.533,3.413-8.533,8.533c0,3.413-6.827,8.533-17.067,8.533c-10.24,0-17.067-5.12-17.067-8.533
				c0-5.12-3.413-8.533-8.533-8.533S-1,352.385-1,357.505c0,14.507,15.36,25.6,34.133,25.6c10.24,0,19.627-3.413,25.6-8.533
				C64.707,379.691,74.093,383.105,84.333,383.105z"/>
			<path d="M459.8,442.838c-10.24,0-17.067-5.12-17.067-8.533c0-5.12-3.413-8.533-8.533-8.533s-8.533,3.413-8.533,8.533
				c0,3.413-6.827,8.533-17.067,8.533c-10.24,0-17.067-5.12-17.067-8.533c0-5.12-3.413-8.533-8.533-8.533s-8.533,3.413-8.533,8.533
				c0,3.413-6.827,8.533-17.067,8.533s-17.067-5.12-17.067-8.533c0-5.12-3.413-8.533-8.533-8.533c-5.12,0-8.533,3.413-8.533,8.533
				c0,3.413-6.827,8.533-17.067,8.533s-17.067-5.12-17.067-8.533c0-5.12-3.413-8.533-8.533-8.533s-8.533,3.413-8.533,8.533
				c0,3.413-6.827,8.533-17.067,8.533s-17.067-5.12-17.067-8.533c0-5.12-3.413-8.533-8.533-8.533s-8.533,3.413-8.533,8.533
				c0,3.413-6.827,8.533-17.067,8.533c-10.24,0-17.067-5.12-17.067-8.533c0-5.12-3.413-8.533-8.533-8.533s-8.533,3.413-8.533,8.533
				c0,3.413-6.827,8.533-17.067,8.533c-10.24,0-17.067-5.12-17.067-8.533c0-5.12-3.413-8.533-8.533-8.533s-8.533,3.413-8.533,8.533
				c0,3.413-6.827,8.533-17.067,8.533s-17.067-5.12-17.067-8.533c0-5.12-3.413-8.533-8.533-8.533s-8.533,3.413-8.533,8.533
				c0,3.413-6.827,8.533-17.067,8.533c-5.12,0-8.533,3.413-8.533,8.533s3.413,8.533,8.533,8.533c10.24,0,19.627-3.413,25.6-8.533
				c5.973,5.12,15.36,8.533,25.6,8.533s19.627-3.413,25.6-8.533c5.973,5.12,15.36,8.533,25.6,8.533c10.24,0,19.627-3.413,25.6-8.533
				c5.973,5.12,15.36,8.533,25.6,8.533c10.24,0,19.627-3.413,25.6-8.533c5.973,5.12,15.36,8.533,25.6,8.533s19.627-3.413,25.6-8.533
				c5.973,5.12,15.36,8.533,25.6,8.533s19.627-3.413,25.6-8.533c5.973,5.12,15.36,8.533,25.6,8.533s19.627-3.413,25.6-8.533
				c5.973,5.12,15.36,8.533,25.6,8.533c10.24,0,19.627-3.413,25.6-8.533c5.973,5.12,15.36,8.533,25.6,8.533
				c5.12,0,8.533-3.413,8.533-8.533S464.92,442.838,459.8,442.838z"/>
			<path d="M502.467,366.038c-10.24,0-17.067-5.12-17.067-8.533c0-5.12-3.413-8.533-8.533-8.533s-8.533,3.413-8.533,8.533
				c0,3.413-6.827,8.533-17.067,8.533c-10.24,0-17.067-5.12-17.067-8.533c0-5.12-3.413-8.533-8.533-8.533s-8.533,3.413-8.533,8.533
				c0,3.413-6.827,8.533-17.067,8.533c-10.24,0-17.067-5.12-17.067-8.533c0-5.12-3.413-8.533-8.533-8.533s-8.533,3.413-8.533,8.533
				c0,3.413-6.827,8.533-17.067,8.533c-10.24,0-17.067-5.12-17.067-8.533c0-5.12-3.413-8.533-8.533-8.533s-8.533,3.413-8.533,8.533
				c0,14.507,15.36,25.6,34.133,25.6c10.24,0,19.627-3.413,25.6-8.533c5.973,5.12,15.36,8.533,25.6,8.533
				c10.24,0,19.627-3.413,25.6-8.533c5.973,5.12,15.36,8.533,25.6,8.533c10.24,0,19.627-3.413,25.6-8.533
				c5.973,5.12,15.36,8.533,25.6,8.533c5.12,0,8.533-3.413,8.533-8.533S507.587,366.038,502.467,366.038z"/>
			<path d="M244.76,399.318c3.413,0.853,6.827,0.853,10.24,0.853c9.387,0,18.773-3.413,26.453-9.387
				c10.24-7.68,16.213-20.48,16.213-33.28c0-13.653-6.827-26.453-17.067-34.133v-34.133h25.6c14.507,0,25.6-11.093,25.6-25.6
				s-11.093-25.6-25.6-25.6h-25.6v-25.6h25.6c14.507,0,25.6-11.093,25.6-25.6s-11.093-25.6-25.6-25.6h-25.6v-25.6h25.6
				c14.507,0,25.6-11.093,25.6-25.6c0-14.507-11.093-25.6-25.6-25.6h-25.6v-7.68c0-12.8-9.387-23.893-22.187-26.453
				c-6.827-0.853-14.507,0.853-20.48,5.973c-5.973,5.12-9.387,11.947-9.387,19.627v248.32c-13.653,10.24-19.627,27.307-15.36,44.373
				C217.453,383.958,229.4,395.905,244.76,399.318z M242.2,336.171c2.56-1.707,4.267-4.267,4.267-7.68V75.905
				c0-2.56,0.853-5.12,3.413-6.827c0.853-0.853,3.413-1.707,5.12-1.707c0.853,0,0.853,0,1.707,0c3.413,0.853,6.827,5.12,6.827,9.387
				v16.213c0,5.12,3.413,8.533,8.533,8.533H306.2c5.12,0,8.533,3.413,8.533,8.533c0,5.12-3.413,8.533-8.533,8.533h-34.133
				c-5.12,0-8.533,3.413-8.533,8.533v42.667c0,5.12,3.413,8.533,8.533,8.533H306.2c5.12,0,8.533,3.413,8.533,8.533
				s-3.413,8.533-8.533,8.533h-34.133c-5.12,0-8.533,3.413-8.533,8.533v42.667c0,5.12,3.413,8.533,8.533,8.533H306.2
				c5.12,0,8.533,3.413,8.533,8.533s-3.413,8.533-8.533,8.533h-34.133c-5.12,0-8.533,3.413-8.533,8.533v46.08
				c0,3.413,1.707,5.973,4.267,7.68c7.68,5.12,12.8,12.8,12.8,22.187c0,8.533-3.413,15.36-9.387,20.48
				c-5.973,5.12-14.507,6.827-22.187,5.12c-9.387-1.707-16.213-9.387-18.773-17.92C227.693,353.238,231.96,342.145,242.2,336.171z"
				/>
		</g>
	</g>
</g>
<g>
</g>
<g>
</g>
<g>
</g>
<g>
</g>
<g>
</g>
<g>
</g>
<g>
</g>
<g>
</g>
<g>
</g>
<g>
</g>
<g>
</g>
<g>
</g>
<g>
</g>
<g>
</g>
<g>
</g>
</svg>
